<?xml version="1.0" standalone="no"?>
<!DOCTYPE svg PUBLIC "-//W3C//DTD SVG 20010904//EN"
 "http://www.w3.org/TR/2001/REC-SVG-20010904/DTD/svg10.dtd">
<svg version="1.0" xmlns="http://www.w3.org/2000/svg"
 width="512.000000pt" height="512.000000pt" viewBox="0 0 512.000000 512.000000"
 preserveAspectRatio="xMidYMid meet">
<metadata>
Created by potrace 1.11, written by Peter Selinger 2001-2013
</metadata>
<g transform="translate(0.000000,512.000000) scale(0.100000,-0.100000)"
fill="#000000" stroke="none">
<path d="M1525 4268 c-125 -16 -248 -107 -300 -221 -77 -170 -49 -395 65 -521
81 -88 179 -128 308 -127 168 2 305 95 367 248 22 54 28 88 31 163 5 153 -36
270 -126 354 -89 84 -213 121 -345 104z m182 -204 c53 -42 84 -108 90 -192 10
-134 -35 -243 -117 -284 -45 -23 -134 -23 -180 0 -124 61 -162 309 -67 434 48
62 88 80 169 76 57 -3 73 -8 105 -34z"/>
<path d="M370 4248 c-52 -11 -97 -24 -100 -28 -3 -5 -5 -245 -5 -534 0 -395 3
-528 12 -537 13 -13 159 -17 171 -4 4 4 8 59 9 123 1 64 2 129 2 144 l1 27 38
-17 c27 -12 65 -16 142 -16 136 0 201 24 278 100 87 88 124 197 118 351 -7
191 -98 325 -263 386 -81 30 -270 32 -403 5z m328 -168 c60 -26 94 -60 120
-121 41 -94 14 -288 -46 -336 -64 -52 -154 -66 -239 -37 -81 27 -78 17 -76
251 1 114 2 218 2 230 1 26 12 29 113 32 60 1 88 -3 126 -19z"/>
<path d="M2290 4248 c-52 -11 -97 -24 -100 -28 -3 -5 -5 -245 -5 -534 0 -395
3 -528 12 -537 17 -17 163 -15 173 1 4 7 8 70 8 139 0 69 1 131 1 138 1 9 12
7 39 -4 27 -13 67 -17 147 -17 97 0 117 3 167 26 77 36 139 96 176 171 40 83
53 153 48 262 -9 189 -98 317 -264 378 -80 30 -270 32 -402 5z m345 -175 c84
-44 123 -120 123 -238 0 -169 -78 -265 -213 -265 -39 0 -148 30 -162 44 -4 4
-7 355 -4 448 1 33 11 36 126 34 70 -1 99 -6 130 -23z"/>
<path d="M3250 4246 l-105 -21 0 -529 c0 -371 3 -533 11 -544 8 -11 30 -15 88
-15 42 1 80 4 84 8 4 4 8 59 9 123 1 64 2 129 2 144 l1 27 38 -17 c27 -12 65
-16 142 -16 135 0 201 24 275 98 89 89 126 197 121 351 -6 192 -97 327 -263
387 -85 31 -262 33 -403 4z m345 -173 c84 -44 123 -120 123 -238 0 -177 -85
-275 -227 -262 -76 7 -102 14 -130 35 l-24 18 1 209 c0 116 1 220 1 232 1 27
16 31 126 29 70 -1 99 -6 130 -23z"/>
<path d="M4023 4252 c-45 -7 -44 -21 11 -188 62 -185 122 -328 212 -507 61
-121 64 -129 50 -155 -45 -86 -135 -123 -241 -99 -34 8 -49 7 -57 -1 -12 -12
-37 -93 -38 -124 0 -24 48 -38 150 -42 167 -7 279 69 366 251 80 170 208 518
249 683 2 8 13 47 24 85 25 86 20 93 -69 96 -108 2 -108 2 -115 -33 -11 -56
-90 -341 -120 -433 -40 -121 -45 -132 -55 -114 -42 75 -200 517 -200 560 0 15
-11 18 -72 21 -40 2 -83 2 -95 0z"/>
<path d="M2005 2993 c-517 -63 -917 -415 -1044 -919 -30 -121 -32 -138 -36
-309 -8 -314 58 -509 230 -680 110 -110 219 -171 372 -210 196 -50 471 -40
683 26 123 39 315 138 325 169 4 14 109 521 120 580 3 14 23 113 45 220 22
107 40 201 40 207 0 10 -86 13 -399 13 -372 0 -400 -1 -405 -17 -4 -17 -31
-148 -42 -211 -3 -15 -12 -61 -20 -102 -8 -41 -14 -77 -14 -80 0 -3 72 -5 160
-5 102 0 160 -3 160 -10 0 -5 -5 -30 -11 -55 -6 -25 -12 -52 -14 -60 -2 -8
-14 -60 -28 -115 l-23 -100 -50 -25 c-41 -21 -64 -25 -146 -27 -286 -4 -428
155 -427 477 0 351 180 654 449 758 73 28 109 34 190 34 110 0 190 -37 263
-123 l35 -40 129 92 c70 52 130 96 133 99 3 3 25 18 49 35 24 16 45 35 48 42
7 18 -57 102 -123 162 -81 74 -210 141 -304 157 -14 3 -32 7 -40 10 -17 7
-261 12 -305 7z"/>
<path d="M3334 2933 c-3 -15 -10 -44 -14 -63 -5 -19 -11 -52 -14 -74 -4 -21
-8 -42 -11 -46 -3 -4 -7 -25 -11 -46 -3 -22 -12 -64 -19 -94 -7 -30 -16 -68
-18 -85 -3 -16 -19 -95 -37 -175 -17 -80 -33 -154 -36 -165 -2 -11 -6 -31 -9
-45 -3 -14 -7 -34 -9 -45 -3 -11 -16 -73 -30 -137 -14 -64 -27 -127 -30 -140
-2 -13 -9 -43 -15 -68 -5 -25 -13 -61 -16 -80 -3 -19 -15 -73 -25 -120 -10
-47 -21 -96 -24 -110 -4 -24 -38 -180 -70 -325 -8 -39 -17 -82 -20 -95 -2 -14
-9 -45 -15 -70 -6 -25 -11 -51 -11 -57 0 -10 61 -13 273 -13 l272 0 27 128
c15 70 45 215 68 322 22 107 43 202 46 211 4 14 27 16 167 16 309 0 490 34
682 128 233 113 378 314 410 567 29 231 -20 406 -145 521 -83 77 -219 141
-340 161 -19 3 -46 9 -60 13 -14 3 -235 8 -492 10 l-467 4 -7 -28z m809 -397
c78 -23 140 -79 158 -144 32 -114 -6 -255 -90 -330 -31 -27 -103 -66 -146 -77
-16 -5 -37 -10 -45 -12 -8 -3 -89 -7 -179 -10 l-164 -5 7 33 c3 19 8 43 10 54
3 11 11 52 19 90 9 39 18 84 20 100 15 92 61 302 68 311 14 17 274 10 342 -10z"/>
</g>
</svg>
